<mxfile host="app.diagrams.net" modified="2022-08-04T22:11:31.557Z" agent="5.0 (X11)" etag="qfCjru5sGotIcOoC394g" version="20.2.3" type="github">
  <diagram name="Page-1" id="16e2658f-23c8-b752-8be9-c03fbebb8bbe">
    <mxGraphModel dx="2029" dy="749" grid="1" gridSize="10" guides="1" tooltips="1" connect="1" arrows="1" fold="1" page="1" pageScale="1" pageWidth="1600" pageHeight="900" background="none" math="0" shadow="0">
      <root>
        <mxCell id="0" />
        <mxCell id="1" parent="0" />
        <mxCell id="tk3jWDGdzixleCatkMts-209" style="edgeStyle=elbowEdgeStyle;rounded=0;orthogonalLoop=1;jettySize=auto;html=1;labelBackgroundColor=default;fontSize=16;fontColor=none;startArrow=none;startFill=0;endArrow=none;endFill=0;strokeColor=#b85450;strokeWidth=5;dashed=1;fillColor=#f8cecc;" parent="1" source="tk3jWDGdzixleCatkMts-210" edge="1">
          <mxGeometry relative="1" as="geometry">
            <mxPoint x="600" y="300" as="targetPoint" />
          </mxGeometry>
        </mxCell>
        <mxCell id="tk3jWDGdzixleCatkMts-210" value="FUSE" style="rounded=0;whiteSpace=wrap;html=1;glass=0;labelBorderColor=none;sketch=0;fontSize=16;strokeColor=#d79b00;strokeWidth=3;fillColor=#ffe6cc;opacity=50;fontStyle=1" parent="1" vertex="1">
          <mxGeometry x="620" y="280" width="120" height="40" as="geometry" />
        </mxCell>
        <mxCell id="tk3jWDGdzixleCatkMts-211" value="" style="endArrow=none;html=1;rounded=0;labelBackgroundColor=none;fontSize=16;fontColor=none;strokeColor=#b85450;strokeWidth=5;fillColor=#f8cecc;startArrow=classic;startFill=1;exitX=0;exitY=0.75;exitDx=0;exitDy=0;" parent="1" source="tk3jWDGdzixleCatkMts-213" target="tk3jWDGdzixleCatkMts-210" edge="1">
          <mxGeometry y="-10" width="50" height="50" relative="1" as="geometry">
            <mxPoint x="1570" y="300" as="sourcePoint" />
            <mxPoint x="490" y="300" as="targetPoint" />
            <Array as="points" />
            <mxPoint as="offset" />
          </mxGeometry>
        </mxCell>
        <mxCell id="tk3jWDGdzixleCatkMts-212" value="CAN L" style="edgeStyle=elbowEdgeStyle;rounded=0;orthogonalLoop=1;jettySize=auto;html=1;labelBackgroundColor=default;fontSize=16;fontColor=none;startArrow=classic;startFill=1;endArrow=classic;endFill=1;strokeColor=#001DBC;strokeWidth=5;fillColor=#0050ef;fontStyle=1;entryX=1;entryY=0.5;entryDx=0;entryDy=0;" parent="1" source="tk3jWDGdzixleCatkMts-213" edge="1">
          <mxGeometry x="-0.6438" y="30" relative="1" as="geometry">
            <mxPoint x="1270.1599999999999" y="570" as="targetPoint" />
            <Array as="points">
              <mxPoint x="1770" y="470" />
            </Array>
            <mxPoint as="offset" />
          </mxGeometry>
        </mxCell>
        <mxCell id="tk3jWDGdzixleCatkMts-213" value="CAN Toolhead" style="whiteSpace=wrap;html=1;aspect=fixed;rounded=0;glass=0;labelBorderColor=none;sketch=0;fontSize=16;fontColor=none;strokeColor=default;strokeWidth=3;fillColor=none;opacity=50;fontStyle=1" parent="1" vertex="1">
          <mxGeometry x="1650" y="180" width="160" height="160" as="geometry" />
        </mxCell>
        <mxCell id="tk3jWDGdzixleCatkMts-214" value="24V PSU" style="shape=step;perimeter=stepPerimeter;whiteSpace=wrap;html=1;fixedSize=1;rounded=0;glass=0;labelBorderColor=none;sketch=0;fontSize=16;fontColor=none;strokeColor=default;strokeWidth=3;fillColor=none;opacity=50;fontStyle=1" parent="1" vertex="1">
          <mxGeometry x="80" y="180" width="210" height="160" as="geometry" />
        </mxCell>
        <mxCell id="tk3jWDGdzixleCatkMts-216" value="PRINTER CONTROLLER" style="rounded=0;whiteSpace=wrap;html=1;glass=0;labelBorderColor=none;sketch=0;fontSize=16;fontColor=none;strokeColor=default;strokeWidth=3;fillColor=none;opacity=50;fontStyle=1" parent="1" vertex="1">
          <mxGeometry x="520" y="420" width="320" height="240" as="geometry" />
        </mxCell>
        <mxCell id="tk3jWDGdzixleCatkMts-217" style="edgeStyle=elbowEdgeStyle;rounded=0;orthogonalLoop=1;jettySize=auto;html=1;entryX=0.75;entryY=0;entryDx=0;entryDy=0;dashed=1;labelBackgroundColor=none;fontSize=16;fontColor=none;startArrow=none;startFill=0;endArrow=none;endFill=0;strokeColor=#b85450;strokeWidth=5;fillColor=#f8cecc;" parent="1" target="tk3jWDGdzixleCatkMts-216" edge="1">
          <mxGeometry relative="1" as="geometry">
            <mxPoint x="740" y="450" as="sourcePoint" />
            <Array as="points">
              <mxPoint x="760" y="440" />
            </Array>
          </mxGeometry>
        </mxCell>
        <mxCell id="tk3jWDGdzixleCatkMts-218" value="FUSE" style="rounded=0;whiteSpace=wrap;html=1;glass=0;labelBorderColor=none;sketch=0;fontSize=16;strokeColor=#d79b00;strokeWidth=3;fillColor=#ffe6cc;opacity=50;fontStyle=1" parent="1" vertex="1">
          <mxGeometry x="620" y="430" width="120" height="40" as="geometry" />
        </mxCell>
        <mxCell id="tk3jWDGdzixleCatkMts-219" value="BED IN" style="endArrow=classicThin;dashed=1;html=1;rounded=0;labelBackgroundColor=none;fontSize=16;fontColor=none;strokeColor=#b85450;strokeWidth=5;fillColor=#f8cecc;endFill=1;fontStyle=1" parent="1" edge="1">
          <mxGeometry x="0.0588" y="-50" width="50" height="50" relative="1" as="geometry">
            <mxPoint x="600" y="300" as="sourcePoint" />
            <mxPoint x="620" y="450" as="targetPoint" />
            <mxPoint as="offset" />
            <Array as="points">
              <mxPoint x="600" y="390" />
              <mxPoint x="600" y="450" />
            </Array>
          </mxGeometry>
        </mxCell>
        <mxCell id="tk3jWDGdzixleCatkMts-220" value="BED OUT" style="endArrow=classic;dashed=1;html=1;rounded=0;labelBackgroundColor=none;fontSize=16;fontColor=none;strokeColor=#b85450;strokeWidth=5;fillColor=#f8cecc;endFill=1;fontStyle=1" parent="1" edge="1">
          <mxGeometry x="-0.5897" y="-50" width="50" height="50" relative="1" as="geometry">
            <mxPoint x="760" y="420" as="sourcePoint" />
            <mxPoint x="760" y="299" as="targetPoint" />
            <mxPoint as="offset" />
          </mxGeometry>
        </mxCell>
        <mxCell id="tk3jWDGdzixleCatkMts-221" value="" style="endArrow=none;dashed=1;html=1;rounded=0;labelBackgroundColor=none;fontSize=16;fontColor=none;strokeColor=#b85450;strokeWidth=5;exitX=0;exitY=0.5;exitDx=0;exitDy=0;fillColor=#f8cecc;" parent="1" source="tk3jWDGdzixleCatkMts-218" edge="1">
          <mxGeometry width="50" height="50" relative="1" as="geometry">
            <mxPoint x="540" y="450" as="sourcePoint" />
            <mxPoint x="600" y="420" as="targetPoint" />
            <Array as="points">
              <mxPoint x="600" y="450" />
            </Array>
          </mxGeometry>
        </mxCell>
        <mxCell id="tk3jWDGdzixleCatkMts-224" value="CAN H" style="edgeStyle=elbowEdgeStyle;rounded=0;orthogonalLoop=1;jettySize=auto;html=1;entryX=0.25;entryY=1;entryDx=0;entryDy=0;labelBackgroundColor=default;fontSize=16;fontColor=none;startArrow=classic;startFill=1;endArrow=classic;endFill=1;strokeColor=#005700;strokeWidth=5;fillColor=#008a00;fontStyle=1;exitX=1;exitY=0.5;exitDx=0;exitDy=0;" parent="1" target="tk3jWDGdzixleCatkMts-213" edge="1">
          <mxGeometry x="0.5593" y="30" relative="1" as="geometry">
            <mxPoint x="1270.1599999999999" y="510.0799999999999" as="sourcePoint" />
            <Array as="points">
              <mxPoint x="1690" y="490" />
            </Array>
            <mxPoint as="offset" />
          </mxGeometry>
        </mxCell>
        <mxCell id="tk3jWDGdzixleCatkMts-229" value="V-" style="endArrow=none;html=1;rounded=0;labelBackgroundColor=none;fontSize=26;fontColor=none;strokeColor=#0A0504;strokeWidth=6;exitX=1;exitY=0.25;exitDx=0;exitDy=0;fontStyle=1" parent="1" source="tk3jWDGdzixleCatkMts-214" edge="1">
          <mxGeometry x="-0.6875" y="33" width="50" height="50" relative="1" as="geometry">
            <mxPoint x="540" y="340" as="sourcePoint" />
            <mxPoint x="1300" y="220" as="targetPoint" />
            <Array as="points" />
            <mxPoint as="offset" />
          </mxGeometry>
        </mxCell>
        <mxCell id="tk3jWDGdzixleCatkMts-230" value="" style="endArrow=none;html=1;rounded=0;labelBackgroundColor=none;fontSize=16;fontColor=none;strokeColor=#0A0504;strokeWidth=6;exitX=0;exitY=0.25;exitDx=0;exitDy=0;endFill=0;startArrow=classic;startFill=1;" parent="1" source="tk3jWDGdzixleCatkMts-213" edge="1">
          <mxGeometry width="50" height="50" relative="1" as="geometry">
            <mxPoint x="620" y="340" as="sourcePoint" />
            <mxPoint x="1290" y="220" as="targetPoint" />
            <Array as="points">
              <mxPoint x="1470" y="220" />
            </Array>
          </mxGeometry>
        </mxCell>
        <mxCell id="tk3jWDGdzixleCatkMts-232" value="PI" style="rounded=0;whiteSpace=wrap;html=1;glass=0;labelBorderColor=none;sketch=0;fontSize=16;fontColor=none;strokeColor=default;strokeWidth=3;fillColor=none;opacity=50;fontStyle=1" parent="1" vertex="1">
          <mxGeometry x="80" y="420" width="240" height="240" as="geometry" />
        </mxCell>
        <mxCell id="tk3jWDGdzixleCatkMts-233" value="USB" style="shape=flexArrow;endArrow=classic;startArrow=classic;html=1;rounded=0;labelBackgroundColor=default;fontSize=16;fontColor=none;strokeColor=#9673a6;strokeWidth=5;entryX=0;entryY=0.5;entryDx=0;entryDy=0;exitX=1;exitY=0.5;exitDx=0;exitDy=0;fillColor=#e1d5e7;fontStyle=1" parent="1" source="tk3jWDGdzixleCatkMts-232" target="tk3jWDGdzixleCatkMts-216" edge="1">
          <mxGeometry y="30" width="100" height="100" relative="1" as="geometry">
            <mxPoint x="310" y="650" as="sourcePoint" />
            <mxPoint x="410" y="550" as="targetPoint" />
            <mxPoint as="offset" />
          </mxGeometry>
        </mxCell>
        <mxCell id="tk3jWDGdzixleCatkMts-234" value="V+" style="endArrow=none;html=1;rounded=0;labelBackgroundColor=default;fontSize=26;fontColor=none;strokeColor=#b85450;strokeWidth=5;fillColor=#f8cecc;entryX=1;entryY=0.75;entryDx=0;entryDy=0;endFill=0;startArrow=classic;startFill=1;fontStyle=1" parent="1" edge="1">
          <mxGeometry x="0.0029" y="-20" width="50" height="50" relative="1" as="geometry">
            <mxPoint x="600" y="300" as="sourcePoint" />
            <mxPoint x="280.8695652173915" y="299.52173913043475" as="targetPoint" />
            <mxPoint as="offset" />
          </mxGeometry>
        </mxCell>
        <mxCell id="hJb8_EWZkOOOuFn0q1bj-3" style="edgeStyle=orthogonalEdgeStyle;rounded=0;orthogonalLoop=1;jettySize=auto;html=1;entryX=0;entryY=0.5;entryDx=0;entryDy=0;fillColor=#008a00;strokeColor=#005700;endArrow=classic;endFill=1;startArrow=classic;startFill=1;strokeWidth=6;exitX=1.014;exitY=0.131;exitDx=0;exitDy=0;exitPerimeter=0;" edge="1" parent="1" source="tk3jWDGdzixleCatkMts-244" target="hJb8_EWZkOOOuFn0q1bj-2">
          <mxGeometry relative="1" as="geometry" />
        </mxCell>
        <mxCell id="hJb8_EWZkOOOuFn0q1bj-4" style="edgeStyle=orthogonalEdgeStyle;rounded=0;orthogonalLoop=1;jettySize=auto;html=1;entryX=0;entryY=0.5;entryDx=0;entryDy=0;startArrow=classic;startFill=1;endArrow=classic;endFill=1;strokeWidth=6;fillColor=#0050ef;strokeColor=#001DBC;exitX=1.008;exitY=0.867;exitDx=0;exitDy=0;exitPerimeter=0;" edge="1" parent="1" source="tk3jWDGdzixleCatkMts-244" target="hJb8_EWZkOOOuFn0q1bj-1">
          <mxGeometry relative="1" as="geometry" />
        </mxCell>
        <mxCell id="tk3jWDGdzixleCatkMts-244" value="RJ11/12" style="whiteSpace=wrap;html=1;aspect=fixed;rounded=0;glass=0;labelBorderColor=none;sketch=0;fontSize=16;strokeColor=#ae4132;strokeWidth=3;fillColor=#fad9d5;opacity=50;fontStyle=1" parent="1" vertex="1">
          <mxGeometry x="830" y="500" width="80" height="80" as="geometry" />
        </mxCell>
        <mxCell id="tk3jWDGdzixleCatkMts-246" value="Klipper Bridge Mode" style="text;html=1;strokeColor=none;fillColor=none;spacing=5;spacingTop=-20;whiteSpace=wrap;overflow=hidden;rounded=0;glass=0;labelBorderColor=none;sketch=0;fontSize=48;fontColor=none;opacity=50;align=center;" parent="1" vertex="1">
          <mxGeometry x="110" y="40" width="1360" height="40" as="geometry" />
        </mxCell>
        <mxCell id="tk3jWDGdzixleCatkMts-247" value="&lt;font color=&quot;#FF1414&quot;&gt;- - - - &lt;/font&gt;Optional Routing via Bed Fuse" style="text;html=1;strokeColor=#ae4132;fillColor=#fad9d5;align=center;verticalAlign=middle;whiteSpace=wrap;rounded=0;glass=0;labelBorderColor=none;sketch=0;fontSize=26;opacity=50;fontStyle=0" parent="1" vertex="1">
          <mxGeometry x="960" y="80" width="440" height="60" as="geometry" />
        </mxCell>
        <mxCell id="tk3jWDGdzixleCatkMts-248" value="It is recommended to fuse your 24v line for extra safety" style="text;html=1;strokeColor=#b46504;fillColor=#fad7ac;align=center;verticalAlign=middle;whiteSpace=wrap;rounded=0;glass=0;labelBorderColor=none;sketch=0;fontSize=26;opacity=50;" parent="1" vertex="1">
          <mxGeometry x="320" y="80" width="640" height="60" as="geometry" />
        </mxCell>
        <mxCell id="hJb8_EWZkOOOuFn0q1bj-1" value="Wago*" style="rounded=0;whiteSpace=wrap;html=1;fillColor=#dae8fc;strokeColor=#6c8ebf;strokeWidth=5;fontColor=#1A1A1A;fontSize=24;fontStyle=1" vertex="1" parent="1">
          <mxGeometry x="1150" y="540" width="120" height="60" as="geometry" />
        </mxCell>
        <mxCell id="hJb8_EWZkOOOuFn0q1bj-2" value="Wago*" style="rounded=0;whiteSpace=wrap;html=1;fillColor=#d5e8d4;strokeColor=#82b366;strokeWidth=5;fontColor=#1A1A1A;fontSize=24;fontStyle=1" vertex="1" parent="1">
          <mxGeometry x="1150" y="480" width="120" height="60" as="geometry" />
        </mxCell>
        <mxCell id="hJb8_EWZkOOOuFn0q1bj-6" value="&lt;font style=&quot;font-size: 20px;&quot;&gt;* A Wago makes easy work of joining thin RJ11/12 wires to your umbillical. However other connectors such as JST/Microfit and Screw Terminals can also be used.&lt;br&gt;&lt;/font&gt;" style="text;html=1;strokeColor=none;fillColor=none;align=center;verticalAlign=middle;whiteSpace=wrap;rounded=0;fontSize=24;fontColor=#1A1A1A;" vertex="1" parent="1">
          <mxGeometry x="960" y="360" width="600" height="80" as="geometry" />
        </mxCell>
      </root>
    </mxGraphModel>
  </diagram>
</mxfile>
